<?xml version="1.0" encoding="UTF-8" standalone="no"?>
<svg
   xmlns:dc="http://purl.org/dc/elements/1.1/"
   xmlns:cc="http://creativecommons.org/ns#"
   xmlns:rdf="http://www.w3.org/1999/02/22-rdf-syntax-ns#"
   xmlns:svg="http://www.w3.org/2000/svg"
   xmlns="http://www.w3.org/2000/svg"
   xmlns:sodipodi="http://sodipodi.sourceforge.net/DTD/sodipodi-0.dtd"
   xmlns:inkscape="http://www.inkscape.org/namespaces/inkscape"
   viewBox="0 0 348 348"
   fill="none"
   stroke-linecap="square"
   stroke-miterlimit="10"
   version="1.1"
   id="svg112"
   sodipodi:docname="Anagrams_RU.svg"
   inkscape:version="0.92.4 (5da689c313, 2019-01-14)">
  <metadata
     id="metadata118">
    <rdf:RDF>
      <cc:Work
         rdf:about="">
        <dc:format>image/svg+xml</dc:format>
        <dc:type
           rdf:resource="http://purl.org/dc/dcmitype/StillImage" />
        <dc:title></dc:title>
      </cc:Work>
    </rdf:RDF>
  </metadata>
  <defs
     id="defs116" />
  <sodipodi:namedview
     pagecolor="#ffffff"
     bordercolor="#666666"
     borderopacity="1"
     objecttolerance="10"
     gridtolerance="10"
     guidetolerance="10"
     inkscape:pageopacity="0"
     inkscape:pageshadow="2"
     inkscape:window-width="1366"
     inkscape:window-height="715"
     id="namedview114"
     showgrid="false"
     inkscape:zoom="1.4142136"
     inkscape:cx="155.63006"
     inkscape:cy="151.53785"
     inkscape:window-x="-8"
     inkscape:window-y="-8"
     inkscape:window-maximized="1"
     inkscape:current-layer="svg112" />
  <clipPath
     id="a">
    <path
       d="M0 0h348v348H0V0z"
       id="path65" />
  </clipPath>
  <g
     clip-path="url(#a)"
     id="g110">
    <path
       d="M0 0h348v348H0z"
       id="path68" />
    <path
       d="M5.08 5.78h336.91v337.67H5.08z"
       id="path70" />
    <path
       d="M5.08 5.78h336.91v337.67H5.08z"
       stroke-linejoin="round"
       stroke-linecap="butt"
       stroke-width="2"
       stroke="#000"
       id="path72" />
    <path
       d="M282.73 40.55c0-8.37 6.97-15.16 15.56-15.16 4.13 0 8.09 1.6 11 4.44a14.97 14.97 0 0 1 4.56 10.72c0 8.38-6.96 15.17-15.56 15.17-8.59 0-15.56-6.8-15.56-15.17z"
       fill="#fff"
       id="path74" />
    <path
       d="M47.03 61.74h29.16v225.74H47.03zm210.54 44.85h29.16v178.2h-29.16z"
       id="path76" />
    <path
       d="M61.6 94.06c10.85-2.33 19.53 12.06 30.57 13.16 24.5 2.45 49.26-2.85 73.83-1.41 11.7.69 20.14 12.75 31.51 15.52 25.01 6.1 50.7 9.06 76.19 12.7m-208.33-3.77c24.47-11.12 52.6 13.95 79.47 13.64 23.99-.28 49.31-7.9 71.96 0 18.92 6.6 43.66 30.64 57.84 16.46m-212.56 2.82c13.59-1.78 28.33-9.68 40.91-4.23 8.54 3.7 7.23 21.33 16.46 22.57 30.32 4.1 61.21-1.6 91.7-4.23 21.87-1.88 43.42 8 65.37 8m-215.39 5.17c14.41-.97 29.28-5.96 43.27-2.35 11.18 2.88 21.44 9.52 32.92 10.81 22.41 2.53 45.29 2.38 67.25 7.53 11.84 2.78 21.62 5.82 29.15 6.11 13.8.53 29.04-7.58 41.39-1.4M61.13 262.4c9.03 12.4 31.7 12.57 45.62 6.11 10.12-4.7 18-16.46 29.16-16.46 9.07 0 18.35 1.42 26.8 4.7 6.33 2.46 4.53 16.4 11.29 16.94 32.75 2.56 66.42.92 98.29-7.06M66.3 227.61c46.12-8.54 94.7 5.86 139.2 20.7 8.91 2.96 16.02-11.54 25.4-12.23 14.25-1.06 28.5 2.82 42.79 2.82"
       id="path78" />
    <rect
       width="220.71"
       height="41.52"
       x="94"
       y="42.07"
       rx="1.03"
       id="rect80"
       fill="#000" />
    <rect
       width="220.71"
       height="41.52"
       x="94"
       y="92.01"
       rx="1.03"
       fill="#000"
       id="rect82" />
    <rect
       width="59.4"
       height="59.4"
       x="28.3"
       y="178.3"
       rx=".57"
       ry="0"
       stroke="#000"
       stroke-width=".6"
       id="rect92" />
    <rect
       ry="0"
       rx=".57"
       y="178.3"
       x="102.3"
       height="59.4"
       width="59.4"
       stroke="#000"
       stroke-width=".6"
       id="rect94" />
    <rect
       ry="0"
       rx=".57"
       y="178.3"
       x="180.3"
       height="59.4"
       width="59.4"
       stroke="#000"
       stroke-width=".6"
       id="rect96" />
    <rect
       width="59.4"
       height="59.4"
       x="254.3"
       y="178.3"
       rx=".57"
       ry="0"
       stroke="#000"
       stroke-width=".6"
       id="rect98" />
    <rect
       ry="0"
       rx=".57"
       y="256.3"
       x="28.3"
       height="59.4"
       width="59.4"
       stroke="#000"
       stroke-width=".6"
       id="rect100" />
    <rect
       width="59.4"
       height="59.4"
       x="104.3"
       y="256.3"
       rx=".57"
       ry="0"
       stroke="#000"
       stroke-width=".6"
       id="rect102" />
    <rect
       width="59.4"
       height="59.4"
       x="180.3"
       y="256.3"
       rx=".57"
       ry="0"
       stroke="#000"
       stroke-width=".6"
       id="rect104" />
    <rect
       ry="0"
       rx=".57"
       y="256.3"
       x="254.3"
       height="59.4"
       width="59.4"
       stroke="#000"
       stroke-width=".6"
       id="rect106" />
    <path
       d="M29.7 52.45c0-8.38 6.96-15.17 15.56-15.17 4.12 0 8.08 1.6 11 4.44a14.97 14.97 0 0 1 4.56 10.73c0 8.37-6.97 15.16-15.56 15.16-8.6 0-15.56-6.79-15.56-15.16z"
       stroke="#000"
       stroke-width="2"
       stroke-linecap="butt"
       stroke-linejoin="round"
       id="path108" />
    <flowRoot
       xml:space="preserve"
       id="flowRoot120"
       style="font-style:normal;font-weight:normal;font-size:40px;line-height:1.25;font-family:sans-serif;text-align:center;letter-spacing:0px;word-spacing:0px;text-anchor:middle;fill:#000000;fill-opacity:1;stroke:none"><flowRegion
         id="flowRegion122"
         style="text-align:center;text-anchor:middle"><rect
           id="rect124"
           width="220.71002"
           height="41.519997"
           x="94"
           y="42.07"
           style="text-align:center;text-anchor:middle" /></flowRegion><flowPara
         id="flowPara126">аыв</flowPara></flowRoot>    <flowRoot
       xml:space="preserve"
       id="flowRoot128"
       style="font-style:normal;font-weight:normal;font-size:40px;line-height:1.25;font-family:sans-serif;letter-spacing:0px;word-spacing:0px;fill:#000000;fill-opacity:1;stroke:none"><flowRegion
         id="flowRegion130"><rect
           id="rect132"
           width="220.71002"
           height="41.519997"
           x="94"
           y="42.07" /></flowRegion><flowPara
         id="flowPara134">ммвмвммвчмчмч</flowPara></flowRoot>    <text
       xml:space="preserve"
       style="font-style:normal;font-weight:normal;font-size:40px;line-height:1.25;font-family:sans-serif;letter-spacing:0px;word-spacing:0px;fill:#000000;fill-opacity:1;stroke:none"
       x="-237.72839"
       y="157.53085"
       id="text138"><tspan
         sodipodi:role="line"
         id="tspan136"
         x="-237.72839"
         y="192.92148" /></text>
    <flowRoot
       xml:space="preserve"
       id="flowRoot140"
       style="font-style:normal;font-weight:normal;font-size:40px;line-height:1.25;font-family:sans-serif;letter-spacing:0px;word-spacing:0px;fill:#ffffff;fill-opacity:1;stroke:none"><flowRegion
         id="flowRegion142"
         style="fill:#ffffff"><rect
           id="rect144"
           width="247.75308"
           height="95.234566"
           x="14.320988"
           y="176.8642"
           style="fill:#ffffff" /></flowRegion><flowPara
         id="flowPara146" /></flowRoot>    <flowRoot
       xml:space="preserve"
       id="flowRoot148"
       style="font-style:normal;font-weight:normal;font-size:40px;line-height:1.25;font-family:sans-serif;letter-spacing:0px;word-spacing:0px;fill:#000000;fill-opacity:1;stroke:none"><flowRegion
         id="flowRegion150"><rect
           id="rect152"
           width="220.71002"
           height="41.519997"
           x="94"
           y="42.07" /></flowRegion><flowPara
         id="flowPara154">х</flowPara></flowRoot>  </g>
  <g
     inkscape:groupmode="layer"
     id="layer1"
     inkscape:label="Layer 1">
    <text
       xml:space="preserve"
       style="font-style:normal;font-weight:normal;font-size:40px;line-height:1.25;font-family:sans-serif;letter-spacing:0px;word-spacing:0px;fill:#000000;fill-opacity:1;stroke:none"
       x="63.728394"
       y="147.50616"
       id="text159"><tspan
         sodipodi:role="line"
         id="tspan157"
         x="63.728394"
         y="182.89679" /></text>
    <flowRoot
       xml:space="preserve"
       id="flowRoot161"
       style="font-style:normal;font-weight:normal;font-size:40px;line-height:1.25;font-family:sans-serif;letter-spacing:0px;word-spacing:0px;fill:#000000;fill-opacity:1;stroke:none"><flowRegion
         id="flowRegion163"><rect
           id="rect165"
           width="220.71002"
           height="41.519997"
           x="94"
           y="42.07" /></flowRegion><flowPara
         id="flowPara167">ъъхлтлталвтсятмшвгатв</flowPara></flowRoot>  </g>
  <text
     xml:space="preserve"
     style="font-style:normal;font-weight:normal;font-size:40px;line-height:1.25;font-family:sans-serif;letter-spacing:0px;word-spacing:0px;fill:#ffffff;fill-opacity:1;stroke:none"
     x="204.26651"
     y="120.82721"
     id="text171"><tspan
       sodipodi:role="line"
       id="tspan169"
       x="204.26651"
       y="120.82721"
       style="font-style:normal;font-variant:normal;font-weight:normal;font-stretch:normal;font-size:29.33333397px;font-family:Verdana;-inkscape-font-specification:Verdana;text-align:center;text-anchor:middle;fill:#ffffff">[Ввод текста]</tspan></text>
  <text
     xml:space="preserve"
     style="font-style:normal;font-weight:normal;font-size:40px;line-height:1.25;font-family:sans-serif;letter-spacing:0px;word-spacing:0px;fill:#000000;fill-opacity:1;stroke:none"
     x="26.162951"
     y="186.07256"
     id="text183"><tspan
       sodipodi:role="line"
       id="tspan181"
       x="26.162951"
       y="221.46318" /></text>
  <text
     xml:space="preserve"
     style="font-style:normal;font-weight:normal;font-size:40px;line-height:1.25;font-family:sans-serif;letter-spacing:0px;word-spacing:0px;fill:#000000;fill-opacity:1;stroke:none"
     x="134.59419"
     y="71.907288"
     id="text187"><tspan
       sodipodi:role="line"
       id="tspan185"
       x="134.59419"
       y="71.907288"
       style="font-size:35px;fill:#ffffff">[Экран]</tspan></text>
</svg>
