<?xml version="1.0" encoding="UTF-8" standalone="no"?>
<svg
   xmlns:dc="http://purl.org/dc/elements/1.1/"
   xmlns:cc="http://creativecommons.org/ns#"
   xmlns:rdf="http://www.w3.org/1999/02/22-rdf-syntax-ns#"
   xmlns:svg="http://www.w3.org/2000/svg"
   xmlns="http://www.w3.org/2000/svg"
   xmlns:xlink="http://www.w3.org/1999/xlink"
   xmlns:sodipodi="http://sodipodi.sourceforge.net/DTD/sodipodi-0.dtd"
   xmlns:inkscape="http://www.inkscape.org/namespaces/inkscape"
   id="svg3336"
   viewBox="-366 367 348 348"
   version="1.1"
   sodipodi:docname="Caesar Cipher_RU.svg"
   inkscape:version="0.92.4 (5da689c313, 2019-01-14)">
  <metadata
     id="metadata162">
    <rdf:RDF>
      <cc:Work
         rdf:about="">
        <dc:format>image/svg+xml</dc:format>
        <dc:type
           rdf:resource="http://purl.org/dc/dcmitype/StillImage" />
        <dc:title></dc:title>
      </cc:Work>
    </rdf:RDF>
  </metadata>
  <sodipodi:namedview
     pagecolor="#ffffff"
     bordercolor="#666666"
     borderopacity="1"
     objecttolerance="10"
     gridtolerance="10"
     guidetolerance="10"
     inkscape:pageopacity="0"
     inkscape:pageshadow="2"
     inkscape:window-width="1366"
     inkscape:window-height="715"
     id="namedview160"
     showgrid="false"
     inkscape:zoom="3.8362575"
     inkscape:cx="155.36039"
     inkscape:cy="305.96623"
     inkscape:window-x="-8"
     inkscape:window-y="-8"
     inkscape:window-maximized="1"
     inkscape:current-layer="svg3336" />
  <defs
     id="defs3111">
    <defs
       id="defs3056">
      <path
         id="SVGID_1_"
         d="M-366 367h348v348h-348z" />
    </defs>
    <clipPath
       id="SVGID_2_">
      <use
         id="use3060"
         xlink:href="#SVGID_1_"
         overflow="visible" />
    </clipPath>
  </defs>
  <style
     id="style3051">
        .st0{clip-path:url(#SVGID_2_)}.st1{fill:#fff;fill-opacity:0}.st1,.st2,.st3{stroke:#000;stroke-miterlimit:10}.st2{fill:#fff}.st3{stroke-width:2}.st3,.st4{fill:#fff}.st5{font-family:'ArialMT'}.st6{font-size:40px}.st7{fill:#fff;stroke:#000;stroke-width:1.25;stroke-linecap:square;stroke-miterlimit:10}
    </style>
  <path
     id="path3349"
     class="st3"
     d="M-361 372.8h337v337.7h-337V372.8z"
     fill="#fff"
     stroke="#000"
     stroke-width="2"
     stroke-miterlimit="10" />
  <path
     id="path3353"
     class="st3"
     d="M-83.3 407.6c0-8.4 7-15.2 15.6-15.2 4 0 8 1.6 11 4.4 3 2.8 4.6 6.7 4.6 10.7 0 8.4-7 15.2-15.7 15.2-8.6 0-15.6-6.8-15.6-15z"
     fill="#fff"
     stroke="#000"
     stroke-width="2"
     stroke-miterlimit="10" />
  <path
     id="rect3361"
     d="M-341 391h232v72h-232z" />
  <text
     class="st4 st5 st6"
     id="text3073"
     style="font-size:40px;font-family:ArialMT;fill:#ffffff"
     x="-296.53964"
     y="438.52136">[Экран]</text>
  <path
     id="rect4240"
     class="st7"
     d="M-323 489h53v53h-53z" />
  <path
     id="rect4240-2"
     class="st7"
     d="M-323 553.5h53v53h-53z" />
  <path
     id="rect4240-7"
     class="st7"
     d="M-323 618.5h53v53h-53z" />
  <path
     id="rect4240-5"
     class="st7"
     d="M-257 489h53v53h-53z" />
  <path
     id="rect4240-2-5"
     class="st7"
     d="M-257 553.5h53v53h-53z" />
  <path
     id="rect4240-7-7"
     class="st7"
     d="M-257 618.5h53v53h-53z" />
  <path
     id="rect4240-55"
     class="st7"
     d="M-190 489h53v53h-53z" />
  <path
     id="rect4240-2-58"
     class="st7"
     d="M-190 553.5h53v53h-53z" />
  <path
     id="rect4240-7-2"
     class="st7"
     d="M-190 618.5h53v53h-53z" />
  <path
     id="rect4240-8"
     class="st7"
     d="M-122.3 489h53v53h-53z" />
  <path
     id="rect4240-2-4"
     class="st7"
     d="M-122.3 553.5h53v53h-53z" />
  <path
     id="rect4240-7-8"
     class="st7"
     d="M-122.3 618.5h53v53h-53z" />
  <text
     transform="translate(-308.176 530.283)"
     class="st5 st6"
     id="text3087">
        A
    </text>
  <text
     transform="translate(-243.068 530.283)"
     class="st5 st6"
     id="text3089">
        B
    </text>
  <text
     transform="translate(-176.636 530.283)"
     class="st5 st6"
     id="text3091">
        C
    </text>
  <text
     transform="translate(-109.348 530.283)"
     class="st5 st6"
     id="text3093">
        D
    </text>
  <text
     transform="translate(-308.17 593.717)"
     class="st5 st6"
     id="text3095">
        E
    </text>
  <text
     transform="translate(-241.945 593.717)"
     class="st5 st6"
     id="text3097">
        F
    </text>
  <text
     transform="translate(-177.75 593.717)"
     class="st5 st6"
     id="text3099">
        G
    </text>
  <text
     transform="translate(-300.386 657.017)"
     class="st5 st6"
     id="text3101">
        I
    </text>
  <text
     transform="translate(-239.728 657.017)"
     class="st5 st6"
     id="text3103">
        J
    </text>
  <text
     transform="translate(-175.533 657.017)"
     class="st5 st6"
     id="text3105">
        K
    </text>
  <text
     transform="translate(-105.304 657.017)"
     class="st5 st6"
     id="text3107">
        L
    </text>
  <text
     transform="translate(-109.348 593.717)"
     class="st5 st6"
     id="text3109">
        H
    </text>
</svg>
