<?xml version="1.0" encoding="UTF-8" standalone="no"?>
<svg
   xmlns:dc="http://purl.org/dc/elements/1.1/"
   xmlns:cc="http://creativecommons.org/ns#"
   xmlns:rdf="http://www.w3.org/1999/02/22-rdf-syntax-ns#"
   xmlns:svg="http://www.w3.org/2000/svg"
   xmlns="http://www.w3.org/2000/svg"
   xmlns:sodipodi="http://sodipodi.sourceforge.net/DTD/sodipodi-0.dtd"
   xmlns:inkscape="http://www.inkscape.org/namespaces/inkscape"
   viewBox="-366 367 348 348"
   version="1.1"
   id="svg36"
   sodipodi:docname="Emoji Math_RU.svg"
   inkscape:version="0.92.4 (5da689c313, 2019-01-14)">
  <metadata
     id="metadata42">
    <rdf:RDF>
      <cc:Work
         rdf:about="">
        <dc:format>image/svg+xml</dc:format>
        <dc:type
           rdf:resource="http://purl.org/dc/dcmitype/StillImage" />
        <dc:title></dc:title>
      </cc:Work>
    </rdf:RDF>
  </metadata>
  <defs
     id="defs40" />
  <sodipodi:namedview
     pagecolor="#ffffff"
     bordercolor="#666666"
     borderopacity="1"
     objecttolerance="10"
     gridtolerance="10"
     guidetolerance="10"
     inkscape:pageopacity="0"
     inkscape:pageshadow="2"
     inkscape:window-width="1366"
     inkscape:window-height="715"
     id="namedview38"
     showgrid="false"
     inkscape:zoom="2.7126437"
     inkscape:cx="152.37323"
     inkscape:cy="264.77943"
     inkscape:window-x="-8"
     inkscape:window-y="-8"
     inkscape:window-maximized="1"
     inkscape:current-layer="svg36" />
  <path
     class="st3"
     d="M-360.9 372.8H-24v337.7h-336.9V372.8z"
     stroke-miterlimit="10"
     stroke-width="2"
     stroke="#000"
     fill="none"
     id="path2" />
  <path
     class="st3"
     d="M-83.3 407.6c0-8.4 7-15.2 15.6-15.2 4.1 0 8.1 1.6 11 4.4 2.9 2.8 4.6 6.7 4.6 10.7 0 8.4-7 15.2-15.6 15.2s-15.6-6.8-15.6-15.1z"
     stroke-miterlimit="10"
     stroke-width="2"
     stroke="#000"
     fill="#fff"
     id="path4" />
  <path
     d="M-341 391h232v72h-232z"
     id="path6" />
  <text
     class="st4 st5 st6"
     x="-303.03708"
     y="437.586"
     font-size="40"
     id="text8"
     style="font-size:40px;font-family:Arial;fill:#ffffff">[ЭКРАН]</text>
  <path
     d="M-323 489h53v53h-53zm0 64.5h53v53h-53zm0 65h53v53h-53zm66.1-129.5h53v53h-53zm0 64.5h53v53h-53zm0 65h53v53h-53zm67-129.5h53v53h-53zm0 64.5h53v53h-53zm0 65h53v53h-53zm67.6-129.5h53v53h-53zm0 64.5h53v53h-53zm0 65h53v53h-53z"
     fill="#FFF"
     stroke="#000"
     stroke-width="1.25"
     id="path10" />
  <text
     class="st5 st6"
     x="-306.129"
     y="529.875"
     font-size="40"
     font-family="Arial"
     id="text12">
        1
    </text>
  <text
     class="st5 st6"
     x="-241.054"
     y="529.875"
     font-size="40"
     font-family="Arial"
     id="text14">
        2
    </text>
  <text
     class="st5 st6"
     x="-174.455"
     y="529.621"
     font-size="40"
     font-family="Arial"
     id="text16">
        3
    </text>
  <text
     class="st5 st6"
     x="-106.796"
     y="529.631"
     font-size="40"
     font-family="Arial"
     id="text18">
        0
    </text>
  <text
     class="st5 st6"
     x="-306.91"
     y="593.717"
     font-size="40"
     font-family="Arial"
     id="text20">
        4
    </text>
  <text
     class="st5 st6"
     x="-241.552"
     y="593.877"
     font-size="40"
     font-family="Arial"
     id="text22">
        5
    </text>
  <text
     class="st5 st6"
     x="-174.357"
     y="594.131"
     font-size="40"
     font-family="Arial"
     id="text24">
        6
    </text>
  <text
     class="st5 st6"
     x="-307.662"
     y="659.131"
     font-size="40"
     font-family="Arial"
     id="text26">
        7
    </text>
  <text
     class="st5 st6"
     x="-241.455"
     y="659.131"
     font-size="40"
     font-family="Arial"
     id="text28">
        8
    </text>
  <text
     class="st5 st6"
     x="-174.474"
     y="659.131"
     font-size="40"
     font-family="Arial"
     id="text30">
        9
    </text>
  <text
     class="st5 st6"
     x="-107.48"
     y="659.131"
     font-size="40"
     font-family="Arial"
     id="text32">
        =
    </text>
  <text
     class="st5 st6"
     x="-102.47"
     y="590.361"
     font-size="40"
     font-family="Arial"
     id="text34">
        -
    </text>
</svg>
