<?xml version="1.0" encoding="UTF-8" standalone="no"?>
<svg
   xmlns:dc="http://purl.org/dc/elements/1.1/"
   xmlns:cc="http://creativecommons.org/ns#"
   xmlns:rdf="http://www.w3.org/1999/02/22-rdf-syntax-ns#"
   xmlns:svg="http://www.w3.org/2000/svg"
   xmlns="http://www.w3.org/2000/svg"
   xmlns:xlink="http://www.w3.org/1999/xlink"
   xmlns:sodipodi="http://sodipodi.sourceforge.net/DTD/sodipodi-0.dtd"
   xmlns:inkscape="http://www.inkscape.org/namespaces/inkscape"
   width="612"
   height="612"
   viewBox="0 90 612 612"
   version="1.1"
   id="svg230"
   sodipodi:docname="Piano Keys_RU.svg"
   inkscape:version="0.92.4 (5da689c313, 2019-01-14)">
  <metadata
     id="metadata234">
    <rdf:RDF>
      <cc:Work
         rdf:about="">
        <dc:format>image/svg+xml</dc:format>
        <dc:type
           rdf:resource="http://purl.org/dc/dcmitype/StillImage" />
      </cc:Work>
    </rdf:RDF>
  </metadata>
  <sodipodi:namedview
     pagecolor="#ffffff"
     bordercolor="#666666"
     borderopacity="1"
     objecttolerance="10"
     gridtolerance="10"
     guidetolerance="10"
     inkscape:pageopacity="0"
     inkscape:pageshadow="2"
     inkscape:window-width="1366"
     inkscape:window-height="715"
     id="namedview232"
     showgrid="false"
     inkscape:zoom="2.1814013"
     inkscape:cx="281.14782"
     inkscape:cy="455.82134"
     inkscape:window-x="-8"
     inkscape:window-y="-8"
     inkscape:window-maximized="1"
     inkscape:current-layer="svg230" />
  <defs
     id="defs201">
    <path
       id="a"
       d="M0 90h612v612.001H0z" />
  </defs>
  <clipPath
     id="b">
    <use
       xlink:href="#a"
       overflow="visible"
       id="use203" />
  </clipPath>
  <g
     clip-path="url(#b)"
     id="g218">
    <path
       d="M0 90h612v612.001H0V90z"
       fill="none"
       id="path206" />
    <path
       fill="#FFF"
       d="M-10.552 90h612v611.945h-612V90z"
       id="path208" />
    <path
       d="M8.932 100.158h592.502V693.99H8.932V100.158z"
       fill="none"
       id="path210" />
    <path
       fill="none"
       stroke="#000"
       stroke-width="2"
       stroke-linejoin="round"
       stroke-miterlimit="10"
       d="M8.932 100.158h592.502V693.99H8.932V100.158z"
       id="path212" />
    <path
       fill="#FFF"
       d="M497.223 161.319c0-14.729 12.25-26.67 27.362-26.67 7.257 0 14.217 2.81 19.348 7.812 5.132 5.001 8.015 11.785 8.015 18.858 0 14.729-12.251 26.67-27.362 26.67-15.113 0-27.363-11.94-27.363-26.67z"
       id="path214" />
    <path
       fill="none"
       stroke="#000"
       stroke-width="2"
       stroke-linejoin="round"
       stroke-miterlimit="10"
       d="M497.223 161.319c0-14.729 12.25-26.67 27.362-26.67 7.257 0 14.217 2.81 19.348 7.812 5.132 5.001 8.015 11.785 8.015 18.858 0 14.729-12.251 26.67-27.362 26.67-15.113 0-27.363-11.94-27.363-26.67z"
       id="path216" />
  </g>
  <path
     fill="none"
     stroke="#231F20"
     stroke-width="2"
     stroke-miterlimit="10"
     d="M58.5 154.5h386v142h-386z"
     id="path220" />
  <path
     fill="#FFF"
     stroke="#000"
     stroke-width="2"
     stroke-miterlimit="10"
     d="M32.5 344.5h78v294h-78zm78 0h78v294h-78zm78 0h78v294h-78z"
     id="path224" />
  <path
     fill="#FFF"
     stroke="#000"
     stroke-width="2"
     stroke-miterlimit="10"
     d="M266 344.5h78v294h-78zm78 0h78v294h-78zm78 0h78v294h-78zm78 0h78v294h-78z"
     id="path226" />
  <path
     fill="#231F20"
     stroke="#000"
     stroke-width="2"
     stroke-miterlimit="10"
     d="M88 344.5h45v161H88zm78 0h45v161h-45zm155.5 0h45v161h-45zm78 0h45v161h-45zm78 0h45v161h-45z"
     id="path228" />
  <text
     xml:space="preserve"
     style="font-style:normal;font-weight:normal;font-size:40px;line-height:1.25;font-family:sans-serif;letter-spacing:0px;word-spacing:0px;fill:#000000;fill-opacity:1;stroke:none"
     x="95.036263"
     y="241.48094"
     id="text238"><tspan
       sodipodi:role="line"
       id="tspan236"
       x="95.036263"
       y="241.48094"
       style="font-style:normal;font-variant:normal;font-weight:normal;font-stretch:normal;font-size:48px;line-height:1.25;font-family:Ayar;-inkscape-font-specification:Ayar"
       dx="0">&lt;СИМВОЛЫ&gt;</tspan></text>
</svg>
